<svg width="341" height="77" viewBox="0 0 341 77" fill="none" xmlns="http://www.w3.org/2000/svg">
    <path d="M13.312 64.512C10.1547 64.512 7.59467 63.4667 5.632 61.376C3.66933 59.2853 2.688 56.5547 2.688 53.184V51.712C2.688 51.2853 2.90133 51.072 3.328 51.072H6.464C6.89067 51.072 7.104 51.2853 7.104 51.712V52.992C7.104 55.2533 7.68 57.088 8.832 58.496C9.984 59.8613 11.4773 60.544 13.312 60.544C15.104 60.544 16.5973 59.8827 17.792 58.56C18.9867 57.2373 19.584 55.488 19.584 53.312C19.584 51.8613 19.2853 50.624 18.688 49.6C18.1333 48.5333 17.3867 47.616 16.448 46.848C15.552 46.0373 14.0373 44.8213 11.904 43.2C9.77067 41.6213 8.08533 40.2773 6.848 39.168C5.61067 38.016 4.58667 36.6507 3.776 35.072C3.008 33.4933 2.624 31.6373 2.624 29.504C2.624 26.176 3.584 23.552 5.504 21.632C7.424 19.6693 9.92 18.688 12.992 18.688C16.2347 18.688 18.816 19.7547 20.736 21.888C22.6987 23.9787 23.68 26.7733 23.68 30.272V31.872C23.68 32.2987 23.4667 32.512 23.04 32.512H19.84C19.4133 32.512 19.2 32.2987 19.2 31.872V30.208C19.2 27.9467 18.624 26.1333 17.472 24.768C16.3627 23.36 14.8693 22.656 12.992 22.656C11.2853 22.656 9.87733 23.2747 8.768 24.512C7.65867 25.7067 7.104 27.4133 7.104 29.632C7.104 30.9547 7.33867 32.128 7.808 33.152C8.32 34.1333 9.06667 35.072 10.048 35.968C11.0293 36.864 12.48 38.0373 14.4 39.488C16.96 41.3653 18.8587 42.9013 20.096 44.096C21.376 45.248 22.3573 46.528 23.04 47.936C23.7227 49.3013 24.064 50.9653 24.064 52.928C24.064 56.4267 23.0613 59.2427 21.056 61.376C19.0507 63.4667 16.4693 64.512 13.312 64.512ZM34.2055 63.936C33.7788 63.936 33.5655 63.7227 33.5655 63.296V44.16C33.5655 43.9893 33.5442 43.8827 33.5015 43.84L24.6055 19.968L24.5415 19.712C24.5415 19.3707 24.7335 19.2 25.1175 19.2H28.5735C28.9575 19.2 29.2135 19.3707 29.3415 19.712L35.6135 38.464C35.6562 38.5493 35.7202 38.592 35.8055 38.592C35.8908 38.592 35.9548 38.5493 35.9975 38.464L42.2695 19.712C42.3975 19.3707 42.6535 19.2 43.0375 19.2H46.4935C46.7068 19.2 46.8562 19.2853 46.9415 19.456C47.0695 19.584 47.0908 19.7547 47.0055 19.968L38.1735 43.84C38.1308 43.8827 38.1095 43.9893 38.1095 44.16V63.296C38.1095 63.7227 37.8962 63.936 37.4695 63.936H34.2055ZM67.3155 19.84C67.3155 19.4133 67.5288 19.2 67.9555 19.2H71.1555C71.5822 19.2 71.7955 19.4133 71.7955 19.84V63.36C71.7955 63.7867 71.5822 64 71.1555 64H67.3795C67.0382 64 66.8035 63.8293 66.6755 63.488L54.1955 30.4C54.1528 30.272 54.0888 30.2293 54.0035 30.272C53.9182 30.272 53.8755 30.336 53.8755 30.464L53.9395 63.36C53.9395 63.7867 53.7262 64 53.2995 64H50.0355C49.6088 64 49.3955 63.7867 49.3955 63.36V19.84C49.3955 19.4133 49.6088 19.2 50.0355 19.2H53.7475C54.0888 19.2 54.3235 19.3707 54.4515 19.712L66.9955 52.864C67.0382 52.992 67.1022 53.056 67.1875 53.056C67.2728 53.0133 67.3155 52.928 67.3155 52.8V19.84ZM97.406 19.2C97.8327 19.2 98.046 19.4133 98.046 19.84V22.528C98.046 22.9547 97.8327 23.168 97.406 23.168H88.958C88.7873 23.168 88.702 23.2533 88.702 23.424V63.36C88.702 63.7867 88.4887 64 88.062 64H84.798C84.3713 64 84.158 63.7867 84.158 63.36V23.424C84.158 23.2533 84.0727 23.168 83.902 23.168H75.966C75.5393 23.168 75.326 22.9547 75.326 22.528V19.84C75.326 19.4133 75.5393 19.2 75.966 19.2H97.406ZM116.329 64C115.945 64 115.71 63.808 115.625 63.424L114.025 55.488C114.025 55.4027 113.982 55.3387 113.897 55.296C113.854 55.2533 113.79 55.232 113.705 55.232H102.121C102.036 55.232 101.95 55.2533 101.865 55.296C101.822 55.3387 101.801 55.4027 101.801 55.488L100.201 63.424C100.158 63.808 99.9237 64 99.497 64H96.233C96.0197 64 95.849 63.936 95.721 63.808C95.6357 63.68 95.6143 63.5093 95.657 63.296L105.257 19.776C105.342 19.392 105.577 19.2 105.961 19.2H109.801C110.228 19.2 110.462 19.392 110.505 19.776L120.233 63.296V63.424C120.233 63.808 120.041 64 119.657 64H116.329ZM102.633 51.264C102.633 51.4347 102.697 51.52 102.825 51.52H112.937C113.065 51.52 113.129 51.4347 113.129 51.264L108.009 26.112C107.966 25.984 107.924 25.92 107.881 25.92C107.838 25.92 107.796 25.984 107.753 26.112L102.633 51.264ZM121.257 64C121.043 64 120.873 63.936 120.745 63.808C120.659 63.6373 120.659 63.4453 120.745 63.232L129.705 41.792C129.79 41.664 129.79 41.536 129.705 41.408L120.745 19.968L120.681 19.712C120.681 19.3707 120.873 19.2 121.257 19.2H124.649C124.99 19.2 125.225 19.3707 125.353 19.712L132.009 36.736C132.051 36.864 132.115 36.928 132.201 36.928C132.286 36.928 132.35 36.864 132.393 36.736L139.049 19.712C139.177 19.3707 139.411 19.2 139.753 19.2H143.145C143.358 19.2 143.507 19.2853 143.593 19.456C143.721 19.584 143.742 19.7547 143.657 19.968L134.633 41.472C134.59 41.6 134.59 41.728 134.633 41.856L143.657 63.232L143.721 63.488C143.721 63.8293 143.529 64 143.145 64H139.753C139.411 64 139.177 63.8293 139.049 63.488L132.393 46.528C132.35 46.4 132.286 46.336 132.201 46.336C132.115 46.336 132.051 46.4 132.009 46.528L125.353 63.488C125.225 63.8293 124.99 64 124.649 64H121.257Z" fill="#47327F"/>
    <path d="M166.159 19.712C166.329 19.3707 166.649 19.2 167.119 19.2H174.543C174.756 19.2 174.927 19.2853 175.055 19.456C175.225 19.584 175.311 19.7547 175.311 19.968V63.232C175.311 63.4453 175.225 63.6373 175.055 63.808C174.927 63.936 174.756 64 174.543 64H167.055C166.841 64 166.649 63.936 166.479 63.808C166.351 63.6373 166.287 63.4453 166.287 63.232V34.496C166.287 34.3253 166.244 34.24 166.159 34.24C166.073 34.24 165.988 34.304 165.903 34.432L160.911 43.264C160.697 43.6053 160.527 43.776 160.399 43.776C160.271 43.776 160.1 43.6053 159.887 43.264L154.895 34.432C154.809 34.304 154.724 34.24 154.639 34.24C154.553 34.24 154.511 34.3253 154.511 34.496V63.232C154.511 63.4453 154.425 63.6373 154.255 63.808C154.127 63.936 153.956 64 153.743 64H146.255C146.041 64 145.849 63.936 145.679 63.808C145.551 63.6373 145.487 63.4453 145.487 63.232V19.968C145.487 19.7547 145.551 19.584 145.679 19.456C145.849 19.2853 146.041 19.2 146.255 19.2H153.615C154.041 19.2 154.361 19.3707 154.575 19.712L160.271 29.888C160.399 30.0587 160.527 30.0587 160.655 29.888L166.159 19.712ZM196.357 64C195.845 64 195.568 63.7653 195.525 63.296L194.501 57.152C194.501 56.9387 194.373 56.832 194.117 56.832H185.989C185.733 56.832 185.605 56.9387 185.605 57.152L184.581 63.296C184.538 63.7653 184.261 64 183.749 64H176.261C175.706 64 175.493 63.7227 175.621 63.168L185.029 19.904C185.114 19.4347 185.392 19.2 185.861 19.2H194.501C194.97 19.2 195.248 19.4347 195.333 19.904L204.677 63.168L204.741 63.424C204.741 63.808 204.506 64 204.037 64H196.357ZM186.885 49.536C186.885 49.7493 186.97 49.856 187.141 49.856H192.901C193.114 49.856 193.2 49.7493 193.157 49.536L190.149 32.064C190.106 31.936 190.042 31.872 189.957 31.872C189.872 31.872 189.808 31.936 189.765 32.064L186.885 49.536ZM226.298 19.2C226.511 19.2 226.682 19.2853 226.81 19.456C226.981 19.584 227.066 19.7547 227.066 19.968V26.176C227.066 26.3893 226.981 26.5813 226.81 26.752C226.682 26.88 226.511 26.944 226.298 26.944H218.298C218.085 26.944 217.978 27.0507 217.978 27.264V63.232C217.978 63.4453 217.893 63.6373 217.722 63.808C217.594 63.936 217.423 64 217.21 64H209.722C209.509 64 209.317 63.936 209.146 63.808C209.018 63.6373 208.954 63.4453 208.954 63.232V27.264C208.954 27.0507 208.847 26.944 208.634 26.944H200.954C200.741 26.944 200.549 26.88 200.378 26.752C200.25 26.5813 200.186 26.3893 200.186 26.176V19.968C200.186 19.7547 200.25 19.584 200.378 19.456C200.549 19.2853 200.741 19.2 200.954 19.2H226.298ZM251.691 26.176C251.691 26.3893 251.606 26.5813 251.435 26.752C251.307 26.88 251.137 26.944 250.923 26.944H237.547C237.334 26.944 237.227 27.0507 237.227 27.264V37.376C237.227 37.5893 237.334 37.696 237.547 37.696H245.227C245.441 37.696 245.611 37.7813 245.739 37.952C245.91 38.08 245.995 38.2507 245.995 38.464V44.672C245.995 44.8853 245.91 45.0773 245.739 45.248C245.611 45.376 245.441 45.44 245.227 45.44H237.547C237.334 45.44 237.227 45.5467 237.227 45.76V55.936C237.227 56.1493 237.334 56.256 237.547 56.256H250.923C251.137 56.256 251.307 56.3413 251.435 56.512C251.606 56.64 251.691 56.8107 251.691 57.024V63.232C251.691 63.4453 251.606 63.6373 251.435 63.808C251.307 63.936 251.137 64 250.923 64H228.971C228.758 64 228.566 63.936 228.395 63.808C228.267 63.6373 228.203 63.4453 228.203 63.232V19.968C228.203 19.7547 228.267 19.584 228.395 19.456C228.566 19.2853 228.758 19.2 228.971 19.2H250.923C251.137 19.2 251.307 19.2853 251.435 19.456C251.606 19.584 251.691 19.7547 251.691 19.968V26.176Z" fill="#8A5EF8"/>
    <path d="M273.504 64.2962C272.448 64.2962 271.557 64.2468 270.831 64.1478C270.121 64.0653 269.469 63.9498 268.876 63.8013L269.469 57.8368C269.948 57.9028 270.402 57.9605 270.831 58.01C271.26 58.0595 271.656 58.0843 272.019 58.0843C273.025 58.0843 273.867 57.6883 274.543 56.8963C275.236 56.0879 275.426 54.9164 275.112 53.382C274.98 52.689 274.757 52.0043 274.444 51.3279C274.147 50.6349 273.867 49.9254 273.603 49.1995C273.355 48.457 273.231 47.698 273.231 46.9226C273.231 45.4376 273.891 44.2662 275.211 43.4082C276.531 42.5338 278.363 42.08 280.705 42.0471V41.0076C278.363 40.9746 276.531 40.4961 275.211 39.5722C273.891 38.6482 273.231 37.353 273.231 35.6866C273.231 34.9276 273.347 34.1934 273.578 33.484C273.825 32.758 274.098 32.0403 274.395 31.3308C274.708 30.6213 274.947 29.9201 275.112 29.2272C275.459 27.8412 275.277 26.7853 274.568 26.0593C273.875 25.3333 273.025 24.9704 272.019 24.9704C271.656 24.9704 271.26 24.9951 270.831 25.0446C270.402 25.0776 269.948 25.1354 269.469 25.2178L268.876 19.2534C269.469 19.1049 270.121 18.9894 270.831 18.9069C271.557 18.8079 272.448 18.7584 273.504 18.7584C275.302 18.7584 276.894 19.0966 278.28 19.7731C279.683 20.4496 280.73 21.4395 281.423 22.743C282.116 24.0299 282.298 25.6056 281.968 27.47C281.836 28.2455 281.605 29.0209 281.275 29.7964C280.945 30.5553 280.639 31.3308 280.359 32.1228C280.078 32.9147 279.938 33.7479 279.938 34.6224C279.938 35.2494 280.12 35.8021 280.483 36.2806C280.862 36.7591 281.398 37.155 282.091 37.4685C282.801 37.782 283.651 38.0212 284.641 38.1862C285.647 38.3347 286.777 38.409 288.031 38.409V44.6457C286.777 44.6457 285.647 44.7117 284.641 44.8437C283.651 44.9757 282.801 45.1819 282.091 45.4624C281.398 45.7264 280.862 46.0729 280.483 46.5018C280.12 46.9143 279.938 47.4093 279.938 47.9868C279.938 48.8117 280.078 49.6284 280.359 50.4369C280.639 51.2289 280.945 52.0126 281.275 52.788C281.605 53.5635 281.836 54.3472 281.968 55.1392C282.298 57.0696 282.116 58.7113 281.423 60.0642C280.73 61.4336 279.683 62.4813 278.28 63.2073C276.894 63.9333 275.302 64.2962 273.504 64.2962Z" fill="#8A5EF8"/>
    <path d="M302.466 41.2798C301.212 41.2798 300.147 40.8426 299.273 39.9681C298.399 39.0772 297.961 38.013 297.961 36.7756C297.961 35.5216 298.399 34.4574 299.273 33.583C300.147 32.7085 301.212 32.2713 302.466 32.2713C303.72 32.2713 304.784 32.7085 305.658 33.583C306.533 34.4574 306.97 35.5216 306.97 36.7756C306.97 38.013 306.533 39.0772 305.658 39.9681C304.784 40.8426 303.72 41.2798 302.466 41.2798ZM302.466 59.495C301.212 59.495 300.147 59.0577 299.273 58.1833C298.399 57.2923 297.961 56.2281 297.961 54.9907C297.961 53.7367 298.399 52.6725 299.273 51.7981C300.147 50.9236 301.212 50.4864 302.466 50.4864C303.72 50.4864 304.784 50.9236 305.658 51.7981C306.533 52.6725 306.97 53.7367 306.97 54.9907C306.97 56.2281 306.533 57.2923 305.658 58.1833C304.784 59.0577 303.72 59.495 302.466 59.495ZM321.008 59L311.926 23.8567H318.682L325.859 53.1345H326.305L333.482 23.8567L340.238 23.8567L331.155 59L321.008 59Z" fill="#47327F"/>
</svg>
